<svg width="800" height="800" viewBox="0 0 800 800" fill="none" xmlns="http://www.w3.org/2000/svg">
<g clip-path="url(#clip0_3_14)">
<mask id="mask0_3_14" style="mask-type:luminance" maskUnits="userSpaceOnUse" x="0" y="0" width="800" height="800">
<path d="M800 0H0V800H800V0Z" fill="white"/>
</mask>
<g mask="url(#mask0_3_14)">
<path d="M701.04 277.283C716.48 315.115 725 356.53 725 400H775C775 349.943 765.177 302.117 747.333 258.391L701.04 277.283ZM725 400C725 423.09 722.597 445.593 718.033 467.28L766.96 477.577C772.233 452.523 775 426.573 775 400H725ZM718.033 467.28C691.63 592.757 592.76 691.63 467.28 718.033L477.577 766.96C622.45 736.477 736.477 622.45 766.96 477.577L718.033 467.28ZM467.28 718.033C445.593 722.597 423.09 725 400 725V775C426.573 775 452.523 772.233 477.577 766.96L467.28 718.033ZM400 725C376.907 725 354.407 722.597 332.719 718.033L322.423 766.96C347.473 772.233 373.427 775 400 775V725ZM75 400C75 356.497 83.5337 315.05 98.9953 277.195L52.7073 258.289C34.8367 302.042 25 349.903 25 400H75ZM332.719 718.033C207.241 691.63 108.371 592.757 81.9677 467.28L33.0391 477.577C63.5237 622.45 177.549 736.477 322.423 766.96L332.719 718.033ZM81.9677 467.28C77.4043 445.593 75 423.09 75 400H25C25 426.573 27.7677 452.523 33.0391 477.577L81.9677 467.28ZM98.9953 277.195C139.236 178.672 226.46 104.327 332.718 81.9677L322.423 33.0391C199.677 58.8673 99.123 144.647 52.7073 258.289L98.9953 277.195ZM332.718 81.9677C354.407 77.4043 376.907 75 400 75V25C373.427 25 347.473 27.7677 322.423 33.0391L332.718 81.9677ZM400 75C423.09 75 445.593 77.4043 467.28 81.9677L477.577 33.0391C452.523 27.7677 426.573 25 400 25V75ZM467.28 81.9677C573.57 104.333 660.817 178.717 701.04 277.283L747.333 258.391C700.937 144.699 600.36 58.875 477.577 33.0391L467.28 81.9677ZM448.613 65.103C458.273 95.38 494.05 211.874 508.717 318.94L558.253 312.154C542.967 200.555 506.043 80.6117 496.247 49.904L448.613 65.103ZM508.717 318.94C512.65 347.64 515 375.227 515 400H565C565 372.27 562.383 342.3 558.253 312.154L508.717 318.94ZM714.073 245.081C675.64 256.737 603.443 277.213 528.95 290.962L538.023 340.133C615.153 325.897 689.363 304.824 728.587 292.928L714.073 245.081ZM528.95 290.962C483.763 299.301 438.597 305 400 305V355C442.913 355 491.433 348.73 538.023 340.133L528.95 290.962ZM515 400C515 436.697 509.847 479.36 502.157 522.367L551.377 531.167C559.323 486.73 565 440.84 565 400H515ZM502.157 522.367C485.303 616.64 456.99 708.643 448.613 734.897L496.247 750.097C504.833 723.187 533.937 628.71 551.377 531.167L502.157 522.367ZM734.897 448.613C708.643 456.99 616.64 485.303 522.367 502.157L531.167 551.377C628.71 533.937 723.187 504.833 750.097 496.247L734.897 448.613ZM522.367 502.157C479.36 509.847 436.697 515 400 515V565C440.84 565 486.73 559.323 531.167 551.377L522.367 502.157ZM400 515C363.303 515 320.641 509.847 277.632 502.157L268.832 551.377C313.269 559.323 359.16 565 400 565V515ZM277.632 502.157C183.359 485.303 91.3553 456.99 65.103 448.613L49.904 496.247C76.8123 504.833 171.291 533.937 268.832 551.377L277.632 502.157ZM235 400C235 440.84 240.677 486.73 248.622 531.167L297.842 522.367C290.152 479.36 285 436.697 285 400H235ZM248.622 531.167C266.063 628.71 295.168 723.187 303.754 750.097L351.387 734.897C343.01 708.643 314.698 616.64 297.842 522.367L248.622 531.167ZM303.754 49.904C293.956 80.6117 257.033 200.555 241.745 312.154L291.282 318.94C305.95 211.874 341.727 95.38 351.387 65.103L303.754 49.904ZM241.745 312.154C237.615 342.3 235 372.27 235 400H285C285 375.227 287.351 347.64 291.282 318.94L241.745 312.154ZM400 305C361.403 305 316.237 299.301 271.051 290.962L261.976 340.133C308.566 348.73 357.087 355 400 355V305ZM271.051 290.962C196.529 277.208 124.307 256.723 85.8857 245.068L71.372 292.916C110.583 304.809 184.819 325.892 261.976 340.133L271.051 290.962ZM712.667 245.65C713.063 245.443 713.55 245.24 714.073 245.081L728.587 292.928C731.1 292.166 733.463 291.19 735.707 290.025L712.667 245.65ZM62.8083 289.07C65.4407 290.679 68.296 291.983 71.372 292.916L85.8857 245.068C86.9943 245.405 88.016 245.877 88.8943 246.414L62.8083 289.07Z" fill="#061751"/>
</g>
</g>
<defs>
<clipPath id="clip0_3_14">
<rect width="800" height="800" fill="white"/>
</clipPath>
</defs>
</svg>
